<?xml version="1.0" encoding="UTF-8"?>
<svg width="33px" height="33px" viewBox="0 0 33 33" version="1.1" xmlns="http://www.w3.org/2000/svg" xmlns:xlink="http://www.w3.org/1999/xlink">
    <title>Target</title>
    <g id="Target" stroke="none" stroke-width="1" fill="none" fill-rule="evenodd">
        <rect fill="#FFFFFF" opacity="0" x="0" y="0" width="33" height="33"></rect>
        <path d="M16.5,0 C25.5908454,0 32.9604317,7.36958628 32.9604317,16.4604317 C32.9604317,25.551277 25.5908454,32.9208633 16.5,32.9208633 C7.40915462,32.9208633 0.0395683453,25.551277 0.0395683453,16.4604317 C0.0395683453,7.36958628 7.40915462,0 16.5,0 Z M16.5395683,5.69784173 C10.5955541,5.69784173 5.77697842,10.5164174 5.77697842,16.4604317 C5.77697842,22.4044459 10.5955541,27.2230216 16.5395683,27.2230216 C22.4835826,27.2230216 27.3021583,22.4044459 27.3021583,16.4604317 C27.3021583,10.5164174 22.4835826,5.69784173 16.5395683,5.69784173 Z" id="Combined-Shape" fill="#F80000"></path>
        <circle id="Oval" fill="#F62020" cx="16.5395683" cy="16.4604317" r="6.25179856"></circle>
    </g>
</svg>